<?xml version="1.0" standalone="no"?>
<!DOCTYPE svg PUBLIC "-//W3C//DTD SVG 20010904//EN"
 "http://www.w3.org/TR/2001/REC-SVG-20010904/DTD/svg10.dtd">
<svg version="1.0" xmlns="http://www.w3.org/2000/svg"
 width="1024.000000pt" height="1024.000000pt" viewBox="0 0 1024.000000 1024.000000"
 preserveAspectRatio="xMidYMid meet">

<g transform="translate(0.000000,1024.000000) scale(0.100000,-0.100000)"
fill="#000000" stroke="none">
<path d="M7006 8960 c-224 -48 -452 -214 -629 -457 l-38 -52 -44 30 c-66 45
-198 104 -300 135 -83 25 -102 27 -255 26 -91 0 -183 -2 -205 -3 -22 -1 -76 9
-120 22 -64 18 -104 23 -203 24 l-124 0 6 39 7 39 -69 -6 c-134 -13 -316 -78
-438 -157 l-60 -40 -70 15 c-137 29 -361 13 -499 -37 -74 -26 -174 -75 -240
-116 l-49 -31 -25 37 c-89 134 -244 290 -372 374 -150 100 -270 138 -435 138
-287 0 -507 -147 -649 -435 -93 -188 -129 -394 -106 -602 27 -243 92 -408 225
-567 51 -62 141 -129 203 -152 27 -10 50 -19 52 -20 2 -2 -88 -130 -200 -286
-199 -278 -339 -477 -388 -550 l-25 -38 -193 0 c-186 0 -193 -1 -193 -20 0
-19 7 -20 175 -20 96 0 175 -3 175 -6 0 -8 -365 -519 -406 -567 -43 -52 -23
-88 59 -102 20 -4 37 -9 37 -10 0 -2 -20 -81 -45 -177 -54 -213 -78 -342 -107
-591 -31 -271 -31 -689 0 -924 52 -391 136 -669 307 -1018 132 -270 283 -482
495 -695 177 -178 325 -288 563 -419 l79 -43 -49 -28 c-79 -43 -131 -90 -178
-160 -63 -96 -95 -208 -81 -285 7 -35 7 -35 59 -35 29 0 82 11 118 23 l67 23
6 -64 c8 -72 36 -141 67 -160 17 -11 28 -9 72 11 29 13 81 46 116 72 60 44 65
46 77 30 12 -16 24 -17 87 -12 199 17 346 111 441 280 32 56 41 66 59 62 12
-3 99 -16 192 -30 94 -13 274 -40 400 -59 328 -50 466 -60 775 -53 278 6 347
13 705 71 251 40 423 66 442 66 7 0 24 -21 37 -47 89 -172 266 -283 452 -283
47 0 74 4 76 12 3 7 28 -7 66 -35 63 -49 134 -86 164 -87 38 0 98 121 98 199
l0 39 62 -25 c34 -14 87 -28 119 -30 56 -6 58 -5 65 22 4 14 4 56 1 92 -9 121
-114 289 -219 351 -29 17 -37 32 -17 32 27 0 283 133 379 197 192 127 437 351
590 538 253 309 465 760 559 1190 52 237 65 365 65 675 1 307 -8 420 -55 685
-27 151 -93 416 -130 520 -31 88 -31 105 -1 105 27 0 62 29 62 51 0 11 -44 80
-98 152 -108 145 -230 312 -310 425 l-52 72 190 0 c156 0 190 3 190 14 0 23
-27 27 -225 32 -104 2 -192 8 -196 12 -3 4 -79 111 -170 237 -90 127 -228 317
-306 423 -79 107 -143 197 -143 201 0 4 20 17 44 29 65 31 180 144 230 226 48
77 97 197 120 291 128 518 -113 1044 -541 1182 -108 35 -255 40 -377 13z m289
-104 c124 -33 246 -107 335 -202 71 -75 113 -141 155 -246 137 -335 46 -826
-189 -1020 -37 -30 -123 -78 -140 -78 -7 0 -31 20 -55 44 l-43 44 17 77 c22
97 16 219 -15 320 -30 97 -47 126 -139 249 -50 66 -83 120 -87 142 -16 88 31
218 103 285 64 59 114 79 198 78 62 0 94 -7 158 -34 32 -13 18 15 -32 65 -91
91 -218 104 -358 35 -120 -59 -232 -202 -277 -355 -21 -70 -46 -238 -46 -312
0 -32 -4 -58 -9 -58 -9 0 -116 122 -231 265 -36 44 -100 115 -142 157 l-77 78
62 82 c152 202 326 333 507 382 70 19 240 20 305 2z m-4301 -31 c94 -20 215
-82 311 -159 89 -71 153 -141 237 -259 l56 -80 -52 -51 c-29 -28 -88 -96 -131
-151 -124 -157 -248 -305 -255 -305 -4 0 -10 60 -14 134 -4 79 -15 167 -26
213 -49 193 -163 349 -307 420 -67 33 -81 36 -153 36 -66 -1 -87 -6 -129 -28
-42 -23 -101 -86 -101 -107 0 -3 27 3 61 13 74 23 129 24 199 3 42 -12 67 -29
116 -78 52 -53 65 -73 83 -130 24 -79 27 -146 7 -184 -8 -15 -42 -63 -76 -107
-112 -145 -158 -265 -167 -435 -6 -106 11 -203 40 -238 17 -21 -55 -86 -86
-77 -63 20 -143 74 -202 137 -253 274 -287 822 -70 1147 94 142 262 258 420
291 64 13 165 11 239 -5z m1963 -247 c-2 -62 -4 -61 97 -23 52 19 89 26 146
27 70 0 190 -17 190 -28 0 -2 -5 -13 -12 -24 -19 -31 -2 -35 70 -17 251 64
490 33 747 -95 220 -111 371 -249 716 -653 51 -60 136 -157 189 -215 134 -148
152 -171 294 -389 70 -106 162 -236 204 -290 43 -53 88 -111 100 -128 l23 -33
-60 0 c-34 0 -61 -4 -61 -9 0 -8 79 -50 191 -99 63 -28 69 -34 146 -143 l80
-114 -36 -6 c-20 -4 -99 -12 -176 -18 -432 -34 -960 -155 -1345 -308 -139 -55
-354 -158 -370 -178 -32 -39 11 -29 128 29 289 145 623 252 1037 335 166 33
470 76 610 86 50 3 111 8 136 11 l47 6 76 -109 c41 -59 136 -191 211 -292 74
-102 135 -187 135 -189 0 -4 -78 5 -116 15 -21 4 -21 3 8 -79 87 -239 192
-569 223 -693 56 -231 59 -263 52 -618 -11 -639 -61 -893 -252 -1282 -270
-552 -712 -1015 -1174 -1231 -207 -97 -420 -155 -866 -234 -126 -23 -327 -59
-445 -80 -404 -73 -413 -74 -865 -74 -269 -1 -448 4 -520 12 -285 33 -1182
220 -1385 288 -351 119 -705 392 -977 755 -292 389 -476 792 -527 1156 -43
302 -70 924 -47 1084 35 241 107 527 218 862 19 60 33 110 31 112 -2 3 -31 0
-64 -5 -32 -6 -67 -10 -76 -10 -12 0 44 85 180 275 l197 275 58 0 c121 0 474
-45 734 -94 377 -72 734 -184 1047 -330 62 -29 103 -43 109 -37 5 5 7 14 3 19
-3 5 -86 46 -183 90 -426 192 -937 321 -1503 377 -91 9 -180 20 -197 23 l-33
7 88 123 87 124 120 60 c162 81 163 82 83 88 l-66 5 117 155 c64 85 157 222
205 303 102 170 169 266 270 387 40 47 147 175 238 285 246 296 348 389 569
515 250 143 479 178 726 110 100 -27 107 -27 100 9 -7 33 3 44 78 87 57 33
190 83 222 83 21 1 22 -3 20 -51z m-1587 -7039 c85 -21 181 -43 213 -49 l57
-12 -27 -50 c-63 -116 -171 -193 -287 -205 l-53 -6 15 61 c23 97 -1 167 -45
131 -9 -8 -49 -54 -89 -104 -97 -121 -134 -160 -167 -181 -39 -24 -52 -7 -52
66 1 49 8 73 52 162 28 56 49 106 47 110 -7 11 -97 -36 -195 -103 -48 -33
-101 -62 -119 -65 -32 -7 -32 -7 -25 27 23 109 136 243 233 279 31 11 70 26
86 33 26 12 37 10 115 -21 47 -19 155 -52 241 -73z m3727 61 c69 -32 136 -95
177 -164 27 -47 54 -132 44 -141 -11 -11 -77 23 -182 94 -100 66 -142 88 -152
78 -2 -2 14 -42 36 -88 22 -46 44 -105 48 -131 12 -62 2 -122 -21 -126 -25 -5
-120 90 -202 202 -38 53 -77 98 -85 101 -28 11 -42 -26 -37 -95 3 -36 8 -76
13 -89 7 -24 6 -24 -41 -18 -73 10 -157 53 -207 105 -49 50 -98 120 -98 138 0
6 46 18 103 28 125 22 384 87 452 114 68 27 81 26 152 -8z"/>
<path d="M6265 7641 c-63 -39 -95 -92 -95 -158 0 -29 3 -34 18 -28 116 45 250
43 359 -4 40 -17 74 -31 77 -31 4 0 6 15 6 33 0 66 -78 152 -172 192 -53 21
-155 20 -193 -4z"/>
<path d="M3601 7620 c-73 -27 -114 -63 -151 -132 -18 -34 -28 -98 -15 -98 3 0
27 11 53 24 64 32 147 56 197 56 23 0 75 -9 116 -20 41 -11 77 -20 82 -20 4 0
7 17 7 38 0 48 -47 125 -91 148 -51 26 -135 28 -198 4z"/>
<path d="M6279 7307 c-93 -35 -162 -123 -200 -259 -22 -74 -24 -102 -23 -268
0 -261 24 -358 106 -440 48 -48 177 -113 266 -136 152 -38 270 24 343 180 109
234 28 597 -181 807 -103 104 -223 149 -311 116z m25 -215 c35 -33 48 -72 44
-135 -4 -50 -9 -64 -32 -84 -36 -31 -67 -29 -104 5 -59 56 -64 161 -10 215 23
23 34 28 56 22 15 -3 35 -14 46 -23z m268 8 c55 -42 62 -124 12 -136 -56 -14
-120 99 -79 139 21 22 37 21 67 -3z m162 -357 c13 -33 7 -178 -10 -233 -30
-100 -93 -168 -171 -185 -69 -14 -212 41 -295 114 -44 39 -108 124 -108 144 0
5 32 -21 71 -58 90 -84 190 -135 282 -142 80 -7 114 10 155 74 44 70 56 117
57 215 0 85 6 106 19 71z"/>
<path d="M3655 7251 c-133 -63 -259 -245 -317 -458 -25 -93 -30 -299 -9 -373
31 -110 91 -194 165 -232 153 -79 464 37 534 200 52 121 64 405 24 564 -67
271 -219 385 -397 299z m34 -177 c54 -69 -14 -224 -98 -224 -32 0 -44 8 -60
37 -39 75 35 213 116 213 12 0 31 -12 42 -26z m-246 -587 c44 -103 108 -143
207 -132 98 11 227 84 302 169 46 54 43 19 -3 -41 -55 -71 -126 -126 -199
-155 -68 -26 -169 -35 -210 -18 -40 16 -97 82 -123 139 -26 58 -35 211 -16
256 12 28 14 23 19 -75 4 -62 13 -121 23 -143z"/>
<path d="M4875 6405 c-193 -42 -352 -149 -408 -274 -41 -90 -21 -205 50 -297
90 -114 294 -213 492 -239 l54 -7 -6 -112 c-11 -181 -52 -291 -147 -387 -83
-84 -144 -112 -256 -117 -105 -5 -168 10 -276 64 -37 19 -68 30 -68 24 0 -5
16 -28 36 -50 50 -56 159 -107 257 -121 48 -7 77 -16 77 -24 0 -21 81 -105
122 -126 62 -32 122 -34 222 -9 86 21 90 21 149 5 140 -39 236 -13 316 85 44
54 45 55 120 68 132 22 249 92 274 165 8 22 5 22 -38 -8 -48 -32 -127 -61
-204 -75 -182 -33 -360 64 -445 243 -40 85 -52 137 -61 272 l-7 101 84 12
c169 24 313 89 412 186 172 168 150 354 -58 500 -136 95 -289 136 -501 135
-71 0 -157 -7 -190 -14z m367 -86 c199 -31 363 -135 384 -244 7 -42 -11 -108
-39 -141 -23 -26 -24 -26 -55 -10 -49 26 -90 21 -123 -15 -24 -26 -29 -40 -29
-80 0 -39 -4 -51 -22 -63 -124 -80 -370 -88 -496 -16 -49 29 -51 31 -45 65 7
43 -11 89 -43 110 -30 20 -93 19 -122 -1 -22 -15 -24 -15 -38 2 -30 39 -54 94
-54 125 0 123 168 242 385 272 63 9 229 7 297 -4z m-166 -1494 c-24 -18 -159
-39 -199 -31 -19 4 -48 16 -63 29 l-28 22 80 11 c120 17 146 33 180 108 l29
63 9 -95 c7 -83 6 -97 -8 -107z m168 51 c30 -9 80 -16 111 -16 65 0 69 -13 14
-45 -43 -25 -136 -27 -199 -3 l-45 18 3 66 4 66 29 -35 c21 -26 45 -40 83 -51z"/>
<path d="M6165 5660 c-14 -22 11 -27 162 -33 478 -19 1024 -121 1663 -312 118
-35 247 -75 287 -89 60 -20 74 -22 83 -11 16 19 6 23 -210 93 -679 221 -1396
362 -1839 362 -82 0 -142 -4 -146 -10z"/>
<path d="M3610 5643 c-435 -34 -1134 -182 -1672 -354 -143 -46 -183 -67 -165
-86 3 -3 88 20 189 50 678 205 1335 333 1828 355 128 6 155 10 155 22 0 13
-23 15 -145 16 -80 0 -165 -1 -190 -3z"/>
<path d="M6135 5501 c-3 -5 -1 -12 4 -16 6 -3 106 -30 223 -59 527 -134 1118
-338 1601 -553 54 -24 82 -32 89 -25 7 7 -11 21 -58 42 -504 232 -1121 448
-1653 580 -174 42 -196 46 -206 31z"/>
<path d="M3771 5454 c-438 -103 -978 -279 -1421 -462 -283 -116 -335 -141
-323 -153 6 -6 49 7 129 42 483 208 1244 453 1782 574 12 3 22 12 22 20 0 21
-25 18 -189 -21z"/>
<path d="M6640 4038 c-25 -12 -72 -50 -105 -84 -60 -62 -60 -62 -116 -62 -71
1 -139 -34 -208 -107 -56 -59 -85 -111 -105 -188 -18 -68 -11 -102 25 -127 27
-20 27 -21 13 -55 -18 -45 -18 -115 1 -163 19 -46 75 -82 129 -82 31 0 36 -3
36 -23 0 -35 26 -64 73 -82 42 -16 48 -15 133 5 76 18 118 21 294 20 298 -1
403 22 635 136 145 71 254 148 363 256 69 69 171 203 161 212 -2 3 -47 -29
-99 -70 -130 -102 -328 -233 -429 -283 -94 -48 -224 -92 -356 -123 -72 -16
-143 -22 -355 -28 -146 -5 -275 -11 -287 -15 -17 -5 -25 -3 -29 9 -10 26 12
118 46 195 16 38 30 72 30 75 0 13 -68 -30 -128 -81 -70 -59 -118 -87 -126
-74 -7 11 7 58 32 106 22 42 58 83 135 153 26 23 47 45 47 47 0 10 -77 5 -153
-10 -43 -8 -83 -15 -88 -15 -17 0 51 97 100 143 58 54 98 67 211 67 76 0 91 3
138 30 33 20 78 61 125 116 39 47 73 89 75 93 4 13 -64 31 -119 31 -35 0 -70
-8 -99 -22z"/>
<path d="M3310 4043 c-8 -3 -25 -10 -38 -14 -22 -9 -20 -12 49 -95 76 -90 139
-141 186 -149 15 -3 69 -7 119 -8 82 -2 97 -6 140 -33 44 -27 154 -157 142
-169 -2 -3 -39 2 -82 10 -86 17 -156 20 -156 7 0 -5 33 -39 74 -75 53 -48 83
-85 105 -129 29 -58 40 -108 23 -108 -12 0 -51 28 -117 85 -63 54 -105 85
-116 85 -3 0 9 -44 27 -97 20 -59 34 -118 34 -147 l0 -48 -32 6 c-18 4 -152
11 -298 16 -227 7 -280 12 -370 33 -119 28 -283 91 -380 144 -96 53 -283 181
-379 257 -45 37 -84 66 -86 64 -9 -9 80 -124 159 -205 189 -197 454 -336 736
-388 79 -14 127 -16 280 -11 168 6 192 5 257 -14 40 -11 85 -20 100 -20 43 0
93 36 110 79 14 37 18 39 66 44 41 3 56 11 78 35 44 49 55 104 36 179 l-16 62
31 31 c29 29 30 35 25 84 -7 72 -56 164 -120 229 -67 66 -129 97 -199 97 -50
0 -53 2 -124 70 -40 39 -88 77 -108 85 -34 15 -126 19 -156 8z"/>
<path d="M8098 2837 c-31 -56 -73 -124 -92 -151 -32 -46 -37 -66 -17 -66 13 0
114 155 155 237 40 81 41 83 24 83 -7 0 -39 -46 -70 -103z"/>
<path d="M2170 2743 c0 -37 119 -233 141 -233 17 0 9 18 -56 126 -36 60 -65
112 -65 116 0 4 -4 8 -10 8 -5 0 -10 -8 -10 -17z"/>
<path d="M2390 2407 c0 -28 142 -197 166 -197 24 0 15 25 -22 61 -20 18 -56
60 -81 92 -43 56 -63 70 -63 44z"/>
<path d="M2710 2096 c0 -16 64 -70 138 -114 57 -35 75 -40 70 -18 -2 11 -190
146 -204 146 -2 0 -4 -6 -4 -14z"/>
</g>
</svg>
