<svg width="979" height="1063" viewBox="0 0 979 1063" fill="none" xmlns="http://www.w3.org/2000/svg">
<path d="M742.833 2.2986C712.967 8.6986 682.567 30.8319 658.967 63.2319L653.9 70.1653L648.033 66.1653C639.233 60.1653 621.633 52.2986 608.033 48.1653C596.967 44.8319 594.433 44.5653 574.033 44.6986C561.9 44.6986 549.633 44.9653 546.7 45.0986C543.767 45.2319 536.567 43.8986 530.7 42.1653C522.167 39.7653 516.833 39.0986 503.633 38.9653H487.1L487.9 33.7653L488.833 28.5653L479.633 29.3653C461.767 31.0986 437.5 39.7653 421.233 50.2986L413.233 55.6319L403.9 53.6319C385.633 49.7653 355.767 51.8986 337.367 58.5653C327.5 62.0319 314.167 68.5653 305.367 74.0319L298.833 78.1653L295.5 73.2319C283.633 55.3653 262.967 34.5653 245.9 23.3653C225.9 10.0319 209.9 4.96526 187.9 4.96526C149.633 4.96526 120.3 24.5653 101.367 62.9653C88.9667 88.0319 84.1667 115.499 87.2333 143.232C90.8333 175.632 99.5 197.632 117.233 218.832C124.033 227.099 136.033 236.032 144.3 239.099C147.9 240.432 150.967 241.632 151.233 241.765C151.5 242.032 139.5 259.099 124.567 279.899C98.0333 316.965 79.3667 343.499 72.8333 353.232L69.5 358.299H43.7667C18.9667 358.299 18.0333 358.432 18.0333 360.965C18.0333 363.499 18.9667 363.632 41.3667 363.632C54.1667 363.632 64.7 364.032 64.7 364.432C64.7 365.499 16.0333 433.632 10.5667 440.032C4.83333 446.965 7.5 451.765 18.4333 453.632C21.1 454.165 23.3667 454.832 23.3667 454.965C23.3667 455.232 20.7 465.765 17.3667 478.565C10.1667 506.965 6.96667 524.165 3.1 557.365C-1.03333 593.499 -1.03333 649.232 3.1 680.565C10.0333 732.699 21.2333 769.765 44.0333 816.299C61.6333 852.299 81.7667 880.565 110.033 908.965C133.633 932.699 153.367 947.365 185.1 964.832L195.633 970.565L189.1 974.299C178.567 980.032 171.633 986.299 165.367 995.632C156.967 1008.43 152.7 1023.37 154.567 1033.63C155.5 1038.3 155.5 1038.3 162.433 1038.3C166.3 1038.3 173.367 1036.83 178.167 1035.23L187.1 1032.17L187.9 1040.7C188.967 1050.3 192.7 1059.5 196.833 1062.03C199.1 1063.5 200.567 1063.23 206.433 1060.57C210.3 1058.83 217.233 1054.43 221.9 1050.97C229.9 1045.1 230.567 1044.83 232.167 1046.97C233.767 1049.1 235.367 1049.23 243.767 1048.57C270.3 1046.3 289.9 1033.77 302.567 1011.23C306.833 1003.77 308.033 1002.43 310.433 1002.97C312.033 1003.37 323.633 1005.1 336.033 1006.97C348.567 1008.7 372.567 1012.3 389.367 1014.83C433.1 1021.5 451.5 1022.83 492.7 1021.9C529.767 1021.1 538.967 1020.17 586.7 1012.43C620.167 1007.1 643.1 1003.63 645.633 1003.63C646.567 1003.63 648.833 1006.43 650.567 1009.9C662.433 1032.83 686.033 1047.63 710.833 1047.63C717.1 1047.63 720.7 1047.1 720.967 1046.03C721.367 1045.1 724.7 1046.97 729.767 1050.7C738.167 1057.23 747.633 1062.17 751.633 1062.3C756.7 1062.3 764.7 1046.17 764.7 1035.77V1030.57L772.967 1033.9C777.5 1035.77 784.567 1037.63 788.833 1037.9C796.3 1038.7 796.567 1038.57 797.5 1034.97C798.033 1033.1 798.033 1027.5 797.633 1022.7C796.433 1006.57 782.433 984.165 768.433 975.899C764.567 973.632 763.5 971.632 766.167 971.632C769.767 971.632 803.9 953.899 816.7 945.365C842.3 928.432 874.967 898.565 895.367 873.632C929.1 832.432 957.367 772.299 969.9 714.965C976.833 683.365 978.567 666.299 978.567 624.965C978.7 584.032 977.5 568.965 971.233 533.632C967.633 513.499 958.833 478.165 953.9 464.299C949.767 452.565 949.767 450.299 953.767 450.299C957.367 450.299 962.033 446.432 962.033 443.499C962.033 442.032 956.167 432.832 948.967 423.232C934.567 403.899 918.3 381.632 907.633 366.565L900.7 356.965H926.033C946.833 356.965 951.367 356.565 951.367 355.099C951.367 352.032 947.767 351.499 921.367 350.832C907.5 350.565 895.767 349.765 895.233 349.232C894.833 348.699 884.7 334.432 872.567 317.632C860.567 300.699 842.167 275.365 831.767 261.232C821.233 246.965 812.7 234.965 812.7 234.432C812.7 233.899 815.367 232.165 818.567 230.565C827.233 226.432 842.567 211.365 849.233 200.432C855.633 190.165 862.167 174.165 865.233 161.632C882.3 92.5653 850.167 22.4319 793.1 4.03193C778.7 -0.634735 759.1 -1.3014 742.833 2.2986ZM781.367 16.1653C797.9 20.5653 814.167 30.4319 826.033 43.0986C835.5 53.0986 841.1 61.8986 846.7 75.8986C864.967 120.565 852.833 186.032 821.5 211.899C816.567 215.899 805.1 222.299 802.833 222.299C801.9 222.299 798.7 219.632 795.5 216.432L789.767 210.565L792.033 200.299C794.967 187.365 794.167 171.099 790.033 157.632C786.033 144.699 783.767 140.832 771.5 124.432C764.833 115.632 760.433 108.432 759.9 105.499C757.767 93.7653 764.033 76.4319 773.633 67.4986C782.167 59.6319 788.833 56.9653 800.033 57.0986C808.3 57.0986 812.567 58.0319 821.1 61.6319C825.367 63.3653 823.5 59.6319 816.833 52.9653C804.7 40.8319 787.767 39.0986 769.1 48.2986C753.1 56.1653 738.167 75.2319 732.167 95.6319C729.367 104.965 726.033 127.365 726.033 137.232C726.033 141.499 725.5 144.965 724.833 144.965C723.633 144.965 709.367 128.699 694.033 109.632C689.233 103.765 680.7 94.2986 675.1 88.6986L664.833 78.2986L673.1 67.3653C693.367 40.4319 716.567 22.9653 740.7 16.4319C750.033 13.8986 772.7 13.7653 781.367 16.1653ZM207.9 20.2986C220.433 22.9653 236.567 31.2319 249.367 41.4986C261.233 50.9653 269.767 60.2986 280.967 76.0319L288.433 86.6986L281.5 93.4986C277.633 97.2319 269.767 106.299 264.033 113.632C247.5 134.565 230.967 154.299 230.033 154.299C229.5 154.299 228.7 146.299 228.167 136.432C227.633 125.899 226.167 114.165 224.7 108.032C218.167 82.2986 202.967 61.4986 183.767 52.0319C174.833 47.6319 172.967 47.2319 163.367 47.2319C154.567 47.3653 151.767 48.0319 146.167 50.9653C140.567 54.0319 132.7 62.4319 132.7 65.2319C132.7 65.6319 136.3 64.8319 140.833 63.4986C150.7 60.4319 158.033 60.2986 167.367 63.0986C172.967 64.6986 176.3 66.9653 182.833 73.4986C189.767 80.5653 191.5 83.2319 193.9 90.8319C197.1 101.365 197.5 110.299 194.833 115.365C193.767 117.365 189.233 123.765 184.7 129.632C169.767 148.965 163.633 164.965 162.433 187.632C161.633 201.765 163.9 214.699 167.767 219.365C170.033 222.165 160.433 230.832 156.3 229.632C147.9 226.965 137.233 219.765 129.367 211.365C95.6333 174.832 91.1 101.765 120.033 58.4319C132.567 39.4986 154.967 24.0319 176.033 19.6319C184.567 17.8986 198.033 18.1653 207.9 20.2986ZM469.633 53.2319C469.367 61.4986 469.1 61.3653 482.567 56.2986C489.5 53.7653 494.433 52.8319 502.033 52.6986C511.367 52.6986 527.367 54.9653 527.367 56.4319C527.367 56.6986 526.7 58.1653 525.767 59.6319C523.233 63.7653 525.5 64.2986 535.1 61.8986C568.567 53.3653 600.433 57.4986 634.7 74.5653C664.033 89.3653 684.167 107.765 730.167 161.632C736.967 169.632 748.3 182.565 755.367 190.299C773.233 210.032 775.633 213.099 794.567 242.165C803.9 256.299 816.167 273.632 821.767 280.832C827.5 287.899 833.5 295.632 835.1 297.899L838.167 302.299H830.167C825.633 302.299 822.033 302.832 822.033 303.499C822.033 304.565 832.567 310.165 847.5 316.699C855.9 320.432 856.7 321.232 866.967 335.765L877.633 350.965L872.833 351.765C870.167 352.299 859.633 353.365 849.367 354.165C791.767 358.699 721.367 374.832 670.033 395.232C651.5 402.565 622.833 416.299 620.7 418.965C616.433 424.165 622.167 422.832 637.767 415.099C676.3 395.765 720.833 381.499 776.033 370.432C798.167 366.032 838.7 360.299 857.367 358.965C864.033 358.565 872.167 357.899 875.5 357.499L881.767 356.699L891.9 371.232C897.367 379.099 910.033 396.699 920.033 410.165C929.9 423.765 938.033 435.099 938.033 435.365C938.033 435.899 927.633 434.699 922.567 433.365C919.767 432.832 919.767 432.965 923.633 443.899C935.233 475.765 949.233 519.765 953.367 536.299C960.833 567.099 961.233 571.365 960.3 618.699C958.833 703.899 952.167 737.765 926.7 789.632C890.7 863.232 831.767 924.965 770.167 953.765C742.567 966.699 714.167 974.432 654.7 984.965C637.9 988.032 611.1 992.832 595.367 995.632C541.5 1005.37 540.3 1005.5 480.033 1005.5C444.167 1005.63 420.3 1004.97 410.7 1003.9C372.7 999.499 253.1 974.565 226.033 965.499C179.233 949.632 132.033 913.232 95.7667 864.832C56.8333 812.965 32.3 759.232 25.5 710.699C19.7667 670.432 16.1667 587.499 19.2333 566.165C23.9 534.032 33.5 495.899 48.3 451.232C50.8333 443.232 52.7 436.565 52.4333 436.299C52.1667 435.899 48.3 436.299 43.9 436.965C39.6333 437.765 34.9667 438.299 33.7667 438.299C32.1667 438.299 39.6333 426.965 57.7667 401.632L84.0333 364.965H91.7667C107.9 364.965 154.967 370.965 189.633 377.499C239.9 387.099 287.5 402.032 329.233 421.499C337.5 425.365 342.967 427.232 343.767 426.432C344.433 425.765 344.7 424.565 344.167 423.899C343.767 423.232 332.7 417.765 319.767 411.899C262.967 386.299 194.833 369.099 119.367 361.632C107.233 360.432 95.3667 358.965 93.1 358.565L88.7 357.632L100.433 341.232L112.033 324.699L128.033 316.699C149.633 305.899 149.767 305.765 139.1 304.965L130.3 304.299L145.9 283.632C154.433 272.299 166.833 254.032 173.233 243.232C186.833 220.565 195.767 207.765 209.233 191.632C214.567 185.365 228.833 168.299 240.967 153.632C273.767 114.165 287.367 101.765 316.833 84.9653C350.167 65.8986 380.7 61.2319 413.633 70.2986C426.967 73.8986 427.9 73.8986 426.967 69.0986C426.033 64.6986 427.367 63.2319 437.367 57.4986C444.967 53.0986 462.7 46.4319 466.967 46.4319C469.767 46.2986 469.9 46.8319 469.633 53.2319ZM258.033 991.765C269.367 994.565 282.167 997.499 286.433 998.299L294.033 999.899L290.433 1006.57C282.033 1022.03 267.633 1032.3 252.167 1033.9L245.1 1034.7L247.1 1026.57C250.167 1013.63 246.967 1004.3 241.1 1009.1C239.9 1010.17 234.567 1016.3 229.233 1022.97C216.3 1039.1 211.367 1044.3 206.967 1047.1C201.767 1050.3 200.033 1048.03 200.033 1038.3C200.167 1031.77 201.1 1028.57 206.967 1016.7C210.7 1009.23 213.5 1002.57 213.233 1002.03C212.3 1000.57 200.3 1006.83 187.233 1015.77C180.833 1020.17 173.767 1024.03 171.367 1024.43C167.1 1025.37 167.1 1025.37 168.033 1020.83C171.1 1006.3 186.167 988.432 199.1 983.632C203.233 982.165 208.433 980.165 210.567 979.232C214.033 977.632 215.5 977.899 225.9 982.032C232.167 984.565 246.567 988.965 258.033 991.765ZM754.967 983.632C764.167 987.899 773.1 996.299 778.567 1005.5C782.167 1011.77 785.767 1023.1 784.433 1024.3C782.967 1025.77 774.167 1021.23 760.167 1011.77C746.833 1002.97 741.233 1000.03 739.9 1001.37C739.633 1001.63 741.767 1006.97 744.7 1013.1C747.633 1019.23 750.567 1027.1 751.1 1030.57C752.7 1038.83 751.367 1046.83 748.3 1047.37C744.967 1048.03 732.3 1035.37 721.367 1020.43C716.3 1013.37 711.1 1007.37 710.033 1006.97C706.3 1005.5 704.433 1010.43 705.1 1019.63C705.5 1024.43 706.167 1029.77 706.833 1031.5C707.767 1034.7 707.633 1034.7 701.367 1033.9C691.633 1032.57 680.433 1026.83 673.767 1019.9C667.233 1013.23 660.7 1003.9 660.7 1001.5C660.7 1000.7 666.833 999.099 674.433 997.765C691.1 994.832 725.633 986.165 734.7 982.565C743.767 978.965 745.5 979.099 754.967 983.632Z" fill="white"/>
<path d="M644.034 178.165C635.634 183.365 631.367 190.432 631.367 199.232C631.367 203.099 631.767 203.765 633.767 202.965C649.234 196.965 667.101 197.232 681.634 203.499C686.967 205.765 691.501 207.632 691.901 207.632C692.434 207.632 692.701 205.632 692.701 203.232C692.701 194.432 682.301 182.965 669.767 177.632C662.701 174.832 649.101 174.965 644.034 178.165Z" fill="white"/>
<path d="M288.833 180.965C279.1 184.565 273.633 189.365 268.7 198.565C266.3 203.099 264.966 211.632 266.7 211.632C267.1 211.632 270.3 210.165 273.766 208.432C282.3 204.165 293.366 200.965 300.033 200.965C303.1 200.965 310.033 202.165 315.5 203.632C320.966 205.099 325.766 206.299 326.433 206.299C326.966 206.299 327.366 204.032 327.366 201.232C327.366 194.832 321.1 184.565 315.233 181.499C308.433 178.032 297.233 177.765 288.833 180.965Z" fill="white"/>
<path d="M645.901 222.698C633.501 227.365 624.301 239.098 619.234 257.232C616.301 267.098 616.034 270.832 616.167 292.965C616.167 327.765 619.367 340.698 630.301 351.632C636.701 358.032 653.901 366.698 665.767 369.765C686.034 374.832 701.767 366.565 711.501 345.765C726.034 314.565 715.234 266.165 687.367 238.165C673.634 224.298 657.634 218.298 645.901 222.698ZM649.234 251.365C653.901 255.765 655.634 260.965 655.101 269.365C654.567 276.032 653.901 277.898 650.834 280.565C646.034 284.698 641.901 284.432 636.967 279.898C629.101 272.432 628.434 258.432 635.634 251.232C638.701 248.165 640.167 247.498 643.101 248.298C645.101 248.698 647.767 250.165 649.234 251.365ZM684.967 250.298C692.301 255.898 693.234 266.832 686.567 268.432C679.101 270.298 670.567 255.232 676.034 249.898C678.834 246.965 680.967 247.098 684.967 250.298ZM706.567 297.898C708.301 302.298 707.501 321.632 705.234 328.965C701.234 342.298 692.834 351.365 682.434 353.632C673.234 355.498 654.167 348.165 643.101 338.432C637.234 333.232 628.701 321.898 628.701 319.232C628.701 318.565 632.967 322.032 638.167 326.965C650.167 338.165 663.501 344.965 675.767 345.898C686.434 346.832 690.967 344.565 696.434 336.032C702.301 326.698 703.901 320.432 704.034 307.365C704.034 296.032 704.834 293.232 706.567 297.898Z" fill="white"/>
<path d="M296.034 230.165C278.301 238.565 261.501 262.832 253.767 291.232C250.434 303.632 249.767 331.098 252.567 340.965C256.701 355.632 264.701 366.832 274.567 371.898C294.967 382.432 336.434 366.965 345.767 345.232C352.701 329.098 354.301 291.232 348.967 270.032C340.034 233.898 319.767 218.698 296.034 230.165ZM300.567 253.765C307.767 262.965 298.701 283.632 287.501 283.632C283.234 283.632 281.634 282.565 279.501 278.698C274.301 268.698 284.167 250.298 294.967 250.298C296.567 250.298 299.101 251.898 300.567 253.765ZM267.767 332.032C273.634 345.765 282.167 351.098 295.367 349.632C308.434 348.165 325.634 338.432 335.634 327.098C341.767 319.898 341.367 324.565 335.234 332.565C327.901 342.032 318.434 349.365 308.701 353.232C299.634 356.698 286.167 357.898 280.701 355.632C275.367 353.498 267.767 344.698 264.301 337.098C260.834 329.365 259.634 308.965 262.167 302.965C263.767 299.232 264.034 299.898 264.701 312.965C265.234 321.232 266.434 329.098 267.767 332.032Z" fill="white"/>
<path d="M458.701 342.965C432.967 348.565 411.767 362.832 404.301 379.498C398.834 391.498 401.501 406.832 410.967 419.098C422.967 434.298 450.167 447.498 476.567 450.965L483.767 451.898L482.967 466.832C481.501 490.965 476.034 505.632 463.367 518.432C452.301 529.632 444.167 533.365 429.234 534.032C415.234 534.698 406.834 532.698 392.434 525.498C387.501 522.965 383.367 521.498 383.367 522.298C383.367 522.965 385.501 526.032 388.167 528.965C394.834 536.432 409.367 543.232 422.434 545.098C428.834 546.032 432.701 547.232 432.701 548.298C432.701 551.098 443.501 562.298 448.967 565.098C457.234 569.365 465.234 569.632 478.567 566.298C490.034 563.498 490.567 563.498 498.434 565.632C517.101 570.832 529.901 567.365 540.567 554.298C546.434 547.098 546.567 546.965 556.567 545.232C574.167 542.298 589.767 532.965 593.101 523.232C594.167 520.298 593.767 520.298 588.034 524.298C581.634 528.565 571.101 532.432 560.834 534.298C536.567 538.698 512.834 525.765 501.501 501.898C496.167 490.565 494.567 483.632 493.367 465.632L492.434 452.165L503.634 450.565C526.167 447.365 545.367 438.698 558.567 425.765C581.501 403.365 578.567 378.565 550.834 359.098C532.701 346.432 512.301 340.965 484.034 341.098C474.567 341.098 463.101 342.032 458.701 342.965ZM507.634 354.432C534.167 358.565 556.034 372.432 558.834 386.965C559.767 392.565 557.367 401.365 553.634 405.765C550.567 409.232 550.434 409.232 546.301 407.098C539.767 403.632 534.301 404.298 529.901 409.098C526.701 412.565 526.034 414.432 526.034 419.765C526.034 424.965 525.501 426.565 523.101 428.165C506.567 438.832 473.767 439.898 456.967 430.298C450.434 426.432 450.167 426.165 450.967 421.632C451.901 415.898 449.501 409.765 445.234 406.965C441.234 404.298 432.834 404.432 428.967 407.098C426.034 409.098 425.767 409.098 423.901 406.832C419.901 401.632 416.701 394.298 416.701 390.165C416.701 373.765 439.101 357.898 468.034 353.898C476.434 352.698 498.567 352.965 507.634 354.432ZM485.501 553.632C482.301 556.032 464.301 558.832 458.967 557.765C456.434 557.232 452.567 555.632 450.567 553.898L446.834 550.965L457.501 549.498C473.501 547.232 476.967 545.098 481.501 535.098L485.367 526.698L486.567 539.365C487.501 550.432 487.367 552.298 485.501 553.632ZM507.901 546.832C511.901 548.032 518.567 548.965 522.701 548.965C531.367 548.965 531.901 550.698 524.567 554.965C518.834 558.298 506.434 558.565 498.034 555.365L492.034 552.965L492.434 544.165L492.967 535.365L496.834 540.032C499.634 543.498 502.834 545.365 507.901 546.832Z" fill="white"/>
<path d="M630.7 442.298C628.833 445.232 632.167 445.898 652.3 446.698C716.033 449.232 788.833 462.832 874.033 488.298C889.767 492.965 906.967 498.298 912.3 500.165C920.3 502.832 922.167 503.098 923.367 501.632C925.5 499.098 924.167 498.565 895.367 489.232C804.833 459.765 709.233 440.965 650.167 440.965C639.233 440.965 631.233 441.498 630.7 442.298Z" fill="white"/>
<path d="M290.034 444.565C232.034 449.098 138.834 468.832 67.1005 491.765C48.0338 497.898 42.7005 500.698 45.1005 503.232C45.5005 503.632 56.8338 500.565 70.3005 496.565C160.701 469.232 248.301 452.165 314.034 449.232C331.101 448.432 334.701 447.898 334.701 446.298C334.701 444.565 331.634 444.298 315.367 444.165C304.701 444.165 293.367 444.298 290.034 444.565Z" fill="white"/>
<path d="M626.7 463.498C626.3 464.165 626.566 465.098 627.233 465.632C628.033 466.032 641.366 469.632 656.966 473.498C727.233 491.365 806.033 518.565 870.433 547.232C877.633 550.432 881.366 551.498 882.3 550.565C883.233 549.632 880.833 547.765 874.566 544.965C807.366 514.032 725.1 485.232 654.166 467.632C630.966 462.032 628.033 461.498 626.7 463.498Z" fill="white"/>
<path d="M311.501 469.765C253.101 483.499 181.101 506.965 122.034 531.365C84.3005 546.832 77.3672 550.165 78.9672 551.765C79.7672 552.565 85.5005 550.832 96.1672 546.165C160.567 518.432 262.034 485.765 333.767 469.632C335.367 469.232 336.701 468.032 336.701 466.965C336.701 464.165 333.367 464.565 311.501 469.765Z" fill="white"/>
<path d="M694.033 658.565C690.699 660.165 684.433 665.232 680.033 669.765C672.033 678.032 672.033 678.032 664.566 678.032C655.099 677.898 646.033 682.565 636.833 692.298C629.366 700.165 625.499 707.098 622.833 717.365C620.433 726.432 621.366 730.965 626.166 734.298C629.766 736.965 629.766 737.098 627.899 741.632C625.499 747.632 625.499 756.965 628.033 763.365C630.566 769.498 638.033 774.298 645.233 774.298C649.366 774.298 650.033 774.698 650.033 777.365C650.033 782.032 653.499 785.898 659.766 788.298C665.366 790.432 666.166 790.298 677.499 787.632C687.633 785.232 693.233 784.832 716.699 784.965C756.433 785.098 770.433 782.032 801.366 766.832C820.699 757.365 835.233 747.098 849.766 732.698C858.966 723.498 872.566 705.632 871.233 704.432C870.966 704.032 864.966 708.298 858.033 713.765C840.699 727.365 814.299 744.832 800.833 751.498C788.299 757.898 770.966 763.765 753.366 767.898C743.766 770.032 734.299 770.832 706.033 771.632C686.566 772.298 669.366 773.098 667.766 773.632C665.499 774.298 664.433 774.032 663.899 772.432C662.566 768.965 665.499 756.698 670.033 746.432C672.166 741.365 674.033 736.832 674.033 736.432C674.033 734.698 664.966 740.432 656.966 747.232C647.633 755.098 641.233 758.832 640.166 757.098C639.233 755.632 641.099 749.365 644.433 742.965C647.366 737.365 652.166 731.898 662.433 722.565C665.899 719.498 668.699 716.565 668.699 716.298C668.699 714.965 658.433 715.632 648.299 717.632C642.566 718.698 637.233 719.632 636.566 719.632C634.299 719.632 643.366 706.698 649.899 700.565C657.633 693.365 662.966 691.632 678.033 691.632C688.166 691.632 690.166 691.232 696.433 687.632C700.833 684.965 706.833 679.498 713.099 672.165C718.299 665.898 722.833 660.298 723.099 659.765C723.633 658.032 714.566 655.632 707.233 655.632C702.566 655.632 697.899 656.698 694.033 658.565Z" fill="white"/>
<path d="M250.033 657.898C248.967 658.298 246.7 659.232 244.967 659.765C242.033 660.965 242.3 661.365 251.5 672.432C261.633 684.432 270.033 691.232 276.3 692.298C278.3 692.698 285.5 693.232 292.167 693.365C303.1 693.632 305.1 694.165 310.833 697.765C316.7 701.365 331.367 718.698 329.767 720.298C329.5 720.698 324.567 720.032 318.833 718.965C307.367 716.698 298.033 716.298 298.033 718.032C298.033 718.698 302.433 723.232 307.9 728.032C314.967 734.432 318.967 739.365 321.9 745.232C325.767 752.965 327.233 759.632 324.967 759.632C323.367 759.632 318.167 755.899 309.367 748.299C300.967 741.098 295.367 736.965 293.9 736.965C293.5 736.965 295.1 742.832 297.5 749.899C300.167 757.765 302.033 765.632 302.033 769.499V775.899L297.767 775.099C295.367 774.565 277.5 773.632 258.033 772.965C227.767 772.032 220.7 771.365 208.7 768.565C192.833 764.832 170.967 756.432 158.033 749.365C145.233 742.299 120.3 725.232 107.5 715.098C101.5 710.165 96.3 706.298 96.0333 706.565C94.8333 707.765 106.7 723.098 117.233 733.898C142.433 760.165 177.767 778.699 215.367 785.632C225.9 787.499 232.3 787.765 252.7 787.099C275.1 786.299 278.3 786.432 286.967 788.965C292.3 790.432 298.3 791.632 300.3 791.632C306.033 791.632 312.7 786.832 314.967 781.099C316.833 776.165 317.367 775.899 323.767 775.232C329.233 774.832 331.233 773.765 334.167 770.565C340.033 764.032 341.5 756.699 338.967 746.699L336.833 738.432L340.967 734.298C344.833 730.432 344.967 729.632 344.3 723.098C343.367 713.498 336.833 701.232 328.3 692.565C319.367 683.765 311.1 679.632 301.767 679.632C295.1 679.632 294.7 679.365 285.233 670.298C279.9 665.098 273.5 660.032 270.833 658.965C266.3 656.965 254.033 656.432 250.033 657.898Z" fill="white"/>
<path d="M888.433 818.699C884.3 826.165 878.7 835.232 876.166 838.832C871.9 844.965 871.233 847.632 873.9 847.632C875.633 847.632 889.1 826.965 894.566 816.032C899.9 805.232 900.033 804.965 897.766 804.965C896.833 804.965 892.566 811.099 888.433 818.699Z" fill="white"/>
<path d="M98.0352 831.232C98.0352 836.165 113.902 862.299 116.835 862.299C119.102 862.299 118.035 859.899 109.368 845.499C104.568 837.499 100.702 830.565 100.702 830.032C100.702 829.499 100.168 828.965 99.3685 828.965C98.7018 828.965 98.0352 830.032 98.0352 831.232Z" fill="white"/>
<path d="M127.367 876.032C127.367 879.765 146.301 902.299 149.501 902.299C152.701 902.299 151.501 898.965 146.567 894.165C143.901 891.765 139.101 886.165 135.767 881.899C130.034 874.432 127.367 872.565 127.367 876.032Z" fill="white"/>
<path d="M170.033 917.499C170.033 919.632 178.567 926.832 188.433 932.699C196.033 937.365 198.433 938.032 197.767 935.099C197.5 933.632 172.433 915.632 170.567 915.632C170.3 915.632 170.033 916.432 170.033 917.499Z" fill="white"/>
</svg>
