<?xml version="1.0" standalone="no"?>
<!DOCTYPE svg PUBLIC "-//W3C//DTD SVG 20010904//EN"
 "http://www.w3.org/TR/2001/REC-SVG-20010904/DTD/svg10.dtd">
<svg version="1.0" xmlns="http://www.w3.org/2000/svg"
 width="1024.000000pt" height="1024.000000pt" viewBox="0 0 1024.000000 1024.000000"
 preserveAspectRatio="xMidYMid meet">

<g transform="translate(0.000000,1024.000000) scale(0.100000,-0.100000)"
fill="#000000" stroke="none">
<path d="M3322 8040 c-101 -27 -165 -64 -239 -138 -162 -162 -244 -428 -215
-701 26 -250 132 -444 284 -520 34 -17 67 -31 75 -31 7 0 13 -2 13 -5 0 -3
-39 -75 -86 -160 l-86 -154 -81 -43 c-67 -35 -105 -66 -207 -168 -121 -120
-175 -192 -237 -310 l-28 -55 -65 -7 c-240 -27 -352 -43 -475 -68 -165 -33
-237 -51 -232 -57 2 -2 87 8 188 21 223 30 548 61 556 53 3 -4 -3 -35 -13 -69
-14 -49 -18 -95 -18 -203 0 -124 3 -149 27 -220 14 -43 25 -80 24 -81 -1 0
-58 -27 -127 -60 -140 -66 -354 -183 -347 -191 3 -2 36 11 74 31 38 19 112 53
164 74 52 22 130 56 175 75 l81 35 18 -36 c34 -73 112 -177 195 -263 l85 -87
-48 -159 c-167 -550 -213 -859 -204 -1373 4 -221 9 -314 25 -415 90 -561 364
-1032 747 -1281 41 -27 73 -53 72 -58 -2 -6 -56 -38 -121 -72 -163 -87 -180
-104 -147 -145 13 -17 17 -33 14 -60 -5 -31 -2 -39 17 -49 22 -12 58 -10 92 4
13 6 18 1 24 -28 3 -20 16 -43 27 -51 27 -19 86 -19 110 -1 13 10 27 12 50 5
138 -37 670 -96 1132 -124 1143 -71 2570 -13 3345 135 398 76 535 157 423 249
-78 64 -257 113 -573 157 -260 36 -240 28 -183 73 62 50 177 170 234 246 189
249 301 540 366 955 23 145 26 707 5 860 -39 285 -85 478 -176 745 -64 189
-140 396 -189 517 -39 97 -40 96 44 53 61 -32 49 -8 -15 29 -36 21 -70 43 -74
50 -5 6 -35 74 -67 151 -32 77 -73 170 -91 207 -21 41 -34 82 -34 106 0 46
-23 137 -51 203 -12 27 -19 52 -16 55 11 11 534 -46 653 -71 20 -4 25 -3 14 3
-40 26 -436 100 -628 118 l-73 7 -41 61 c-23 33 -71 99 -108 146 -59 75 -223
352 -343 580 -21 41 -43 80 -48 86 -6 8 9 18 48 33 224 82 372 400 349 752 -8
129 -37 234 -93 340 -114 216 -309 331 -538 316 -207 -14 -406 -105 -625 -288
l-56 -46 -38 33 c-21 18 -59 41 -85 51 -25 9 -62 33 -81 53 -20 20 -61 47 -93
60 -31 14 -57 28 -57 33 0 4 15 7 34 7 39 0 55 14 28 25 -44 17 -151 17 -230
0 -104 -23 -226 -82 -230 -112 l-3 -21 73 21 c108 30 316 31 373 1 22 -12 38
-25 35 -30 -3 -5 -36 -17 -75 -26 -148 -38 -304 -128 -429 -249 -46 -44 -87
-76 -90 -71 -9 14 11 117 29 152 9 18 14 34 12 37 -10 9 -81 -64 -98 -102 -33
-71 -21 -219 17 -232 7 -2 52 33 100 79 205 192 368 296 513 327 104 22 147 9
238 -73 54 -49 70 -55 75 -31 7 31 222 185 343 245 158 78 262 104 400 98 87
-4 108 -9 160 -36 71 -37 118 -77 174 -150 49 -64 55 -93 14 -62 -84 61 -264
84 -371 47 -105 -37 -215 -154 -292 -311 -88 -178 -72 -257 110 -541 46 -71
112 -177 148 -235 75 -121 255 -450 249 -456 -2 -2 -41 10 -88 27 -134 50
-216 69 -331 76 -104 6 -108 5 -108 -14 0 -18 10 -22 98 -33 160 -20 348 -89
472 -173 62 -42 160 -137 234 -227 61 -74 112 -148 105 -154 -2 -2 -74 1 -159
6 -267 16 -635 0 -979 -43 -174 -22 -221 -33 -204 -50 7 -7 73 -3 204 13 175
20 241 22 681 23 267 0 489 -3 492 -6 4 -4 23 -46 44 -95 36 -87 37 -92 37
-214 0 -106 -4 -134 -23 -181 -40 -99 -24 -97 -217 -24 -224 84 -420 146 -637
200 -182 45 -402 89 -420 83 -5 -2 44 -16 109 -32 141 -33 420 -112 593 -168
103 -33 497 -175 508 -184 8 -5 -94 -126 -165 -195 -240 -235 -683 -431 -1057
-468 -155 -16 -469 -13 -611 5 -234 29 -221 28 -229 8 -9 -23 7 -36 69 -59
138 -50 300 -154 277 -177 -6 -6 -54 -5 -128 3 -66 7 -136 9 -157 5 -39 -7
-49 -28 -21 -44 13 -7 10 -13 -21 -32 -32 -20 -75 -72 -75 -92 0 -17 35 -38
63 -38 46 0 150 33 155 49 4 11 -11 13 -77 8 -44 -3 -81 -1 -81 3 0 13 48 44
105 69 41 18 72 22 190 25 105 3 160 9 220 26 111 30 257 92 356 151 54 32
104 54 139 60 381 70 755 248 973 463 57 57 137 150 154 180 8 14 21 11 103
-22 69 -28 98 -45 107 -63 18 -38 155 -406 228 -614 150 -428 200 -725 199
-1195 -1 -376 -29 -576 -121 -849 -168 -506 -520 -848 -1054 -1025 -226 -75
-352 -90 -539 -65 -100 13 -328 13 -415 -1 -39 -6 -131 -24 -205 -40 -215 -46
-321 -53 -682 -47 -328 5 -471 17 -713 58 -788 134 -1294 456 -1552 989 -151
313 -213 623 -213 1075 0 189 9 345 19 345 4 0 14 -21 23 -47 23 -63 88 -162
144 -217 50 -50 129 -92 191 -102 136 -21 348 155 469 388 54 105 112 279 121
360 l6 58 42 0 c28 0 51 7 70 21 23 19 26 27 20 55 -4 26 -2 34 8 34 23 0 38
26 32 53 -4 14 -22 44 -41 66 l-35 40 51 26 c48 24 53 25 118 14 95 -17 352
-5 547 26 190 30 225 40 225 65 0 18 -25 34 -39 26 -16 -10 -306 -37 -456 -43
-194 -7 -625 12 -717 31 -72 16 -249 100 -363 173 -200 129 -364 293 -454 454
l-32 57 88 37 c127 53 461 163 728 240 258 74 268 77 205 69 -158 -20 -648
-158 -900 -254 -73 -27 -136 -48 -140 -45 -4 3 -16 37 -26 77 -34 133 -18 400
27 455 24 28 711 14 1019 -22 160 -19 180 -19 180 0 0 8 -2 15 -5 15 -3 0 -69
9 -147 20 -253 36 -474 52 -750 54 -174 1 -268 5 -268 11 0 17 75 140 123 202
192 249 449 367 827 382 156 6 165 7 165 26 0 17 -9 21 -60 28 -79 11 -269 1
-374 -18 -46 -9 -85 -14 -88 -12 -12 12 85 180 289 497 164 258 164 256 194
336 39 102 31 164 -35 297 -55 112 -128 206 -193 249 -100 68 -235 75 -354 19
-71 -33 -71 -32 -3 55 52 66 96 100 174 136 43 20 66 23 155 22 119 -1 207
-25 335 -92 75 -40 224 -148 318 -230 55 -49 57 -52 37 -64 -22 -14 -28 -53
-7 -45 7 3 53 28 102 56 88 50 205 94 285 107 77 13 196 -62 297 -187 30 -38
61 -68 67 -66 20 6 66 109 66 149 0 31 -4 38 -19 38 -13 0 -23 -11 -31 -35
l-12 -36 -30 45 c-50 77 -135 133 -245 161 -99 26 -277 16 -258 -15 3 -5 21
-10 38 -11 32 0 32 0 7 -11 -14 -6 -63 -28 -108 -49 -46 -22 -88 -39 -94 -39
-6 0 -36 23 -67 52 -160 147 -370 277 -506 313 -100 26 -209 28 -293 5z m-110
-332 c49 -15 75 -45 207 -245 l100 -152 -49 -35 c-126 -90 -160 -228 -102
-412 l19 -61 -34 -42 c-34 -40 -37 -41 -94 -41 -106 0 -173 53 -235 184 -60
126 -77 210 -78 391 -2 267 44 377 172 415 38 12 50 12 94 -2z m3954 -17 c55
-25 98 -81 120 -155 30 -98 25 -340 -8 -466 -66 -247 -188 -380 -348 -380 -57
0 -89 22 -114 78 -17 38 -17 40 3 80 30 58 51 147 51 212 0 75 -37 148 -98
198 -26 20 -50 41 -54 46 -3 5 13 35 36 65 23 31 81 112 129 181 47 69 99 133
114 142 37 23 117 22 169 -1z m491 -2566 c22 -58 40 -105 38 -105 -3 0 -139
61 -143 65 -1 1 9 26 23 56 14 30 25 62 25 72 0 38 17 12 57 -88z m-4707 -513
c56 -45 178 -118 265 -158 44 -20 117 -54 163 -76 66 -32 98 -41 159 -45 50
-4 82 -12 92 -22 9 -9 38 -34 64 -55 45 -37 74 -73 65 -81 -2 -2 -26 6 -53 19
-63 30 -105 40 -105 26 0 -6 14 -19 31 -28 49 -26 86 -60 92 -82 8 -31 -7 -32
-55 -5 -78 45 -110 26 -35 -22 l42 -27 -46 -9 -45 -9 -18 -71 c-58 -245 -269
-563 -423 -641 -74 -37 -143 -36 -205 3 -85 54 -163 174 -210 321 -32 105 -31
243 5 403 47 209 160 587 176 587 4 0 22 -13 41 -28z m831 -3366 l126 -52 -76
-32 c-125 -53 -321 -104 -321 -82 0 5 16 28 36 50 33 37 40 70 15 70 -13 0
-64 -44 -124 -107 -34 -36 -58 -53 -75 -53 -23 0 -24 3 -19 36 3 20 19 65 36
99 21 46 26 65 17 68 -22 9 -77 -25 -132 -81 -57 -59 -80 -62 -62 -9 19 57 55
93 150 152 51 32 99 64 107 71 12 10 30 5 105 -33 50 -25 148 -69 217 -97z
m2621 -112 c37 -19 68 -70 68 -111 0 -43 -16 -50 -29 -13 -11 33 -46 82 -53
75 -2 -2 -1 -31 2 -65 3 -33 2 -60 -2 -60 -4 0 -21 27 -39 60 -33 63 -71 110
-88 110 -6 0 -9 -38 -8 -94 3 -149 -32 -159 -88 -25 -23 57 -36 75 -53 77 -25
4 -28 -11 -11 -71 5 -20 7 -42 4 -47 -16 -26 -193 111 -183 141 14 43 406 61
480 23z"/>
<path d="M5265 8050 c-156 -13 -272 -53 -314 -106 -30 -38 -47 -99 -35 -131
13 -37 29 -39 44 -3 7 16 30 45 51 65 81 73 185 108 377 126 114 10 182 25
182 38 0 8 -129 22 -184 20 -17 -1 -71 -5 -121 -9z"/>
<path d="M4558 7964 c-15 -14 -8 -21 40 -39 60 -22 144 -69 184 -103 29 -25
31 -25 44 -7 8 10 14 25 14 33 0 24 -73 87 -116 99 -53 16 -157 27 -166 17z"/>
<path d="M4060 6868 c-64 -39 -122 -111 -151 -188 -16 -42 -20 -72 -17 -132 3
-86 0 -90 -52 -63 -35 18 -38 8 -8 -30 30 -38 77 -55 150 -54 79 1 142 23 213
74 96 69 135 189 101 307 -34 118 -127 151 -236 86z m28 -80 c7 -7 12 -24 12
-38 0 -14 -5 -31 -12 -38 -7 -7 -24 -12 -38 -12 -14 0 -31 5 -38 12 -7 7 -12
24 -12 38 0 14 5 31 12 38 7 7 24 12 38 12 14 0 31 -5 38 -12z"/>
<path d="M5792 6883 c-80 -39 -116 -189 -73 -305 64 -167 312 -245 436 -137
41 37 45 52 9 39 -40 -16 -42 -13 -37 48 9 96 -42 217 -124 297 -74 72 -144
91 -211 58z m76 -101 c17 -22 15 -52 -5 -74 -46 -51 -123 20 -80 74 23 30 60
30 85 0z"/>
<path d="M4830 6421 c-189 -28 -290 -98 -290 -201 0 -111 147 -240 272 -240
37 0 48 4 53 19 3 11 0 29 -7 41 -19 31 -143 90 -189 90 -47 0 -79 36 -79 89
0 94 146 160 355 161 101 0 183 -18 263 -56 80 -39 101 -93 62 -163 -19 -33
-24 -36 -68 -36 -61 0 -177 -53 -193 -89 -19 -40 -6 -56 45 -56 125 0 286 137
286 243 0 74 -83 144 -210 178 -84 22 -222 31 -300 20z"/>
<path d="M4930 5923 c0 -60 -30 -187 -58 -248 -39 -82 -81 -128 -144 -156 -78
-35 -232 -33 -338 3 -77 27 -73 16 10 -27 49 -25 137 -52 184 -57 27 -3 32 -9
47 -61 19 -65 48 -112 87 -142 31 -23 121 -32 175 -17 27 8 51 7 94 -5 32 -8
72 -12 90 -10 68 11 128 78 156 173 16 54 21 58 97 72 69 13 157 46 190 72 24
19 24 19 -40 -1 -144 -45 -305 -34 -383 25 -85 64 -128 157 -146 315 -9 84
-21 119 -21 64z m-6 -545 c3 -13 6 -41 7 -63 1 -36 2 -33 11 20 5 33 11 61 13
63 14 15 145 -101 145 -128 0 -23 -51 -30 -114 -16 -44 11 -74 12 -102 6 -59
-14 -114 -12 -114 3 0 21 110 137 130 137 10 0 20 -10 24 -22z"/>
<path d="M3670 5563 c-14 -2 -74 -10 -135 -19 -117 -15 -318 -54 -312 -60 3
-3 303 30 491 54 72 9 90 33 24 31 -23 -1 -54 -3 -68 -6z"/>
<path d="M6065 5560 c-8 -12 36 -30 75 -30 43 0 379 -40 429 -51 57 -13 66 -4
10 11 -24 6 -60 15 -79 21 -44 11 -373 59 -405 59 -13 0 -27 -5 -30 -10z"/>
<path d="M5376 3962 c-49 -52 -16 -92 75 -92 50 0 59 -9 59 -57 0 -88 100
-316 191 -436 53 -70 169 -179 253 -236 72 -50 225 -119 312 -141 289 -74 685
59 955 321 94 91 165 189 156 214 -4 8 -10 15 -15 15 -5 0 -40 -37 -78 -81
-197 -231 -538 -389 -841 -389 -110 0 -187 17 -291 66 -267 123 -477 363 -577
659 l-31 90 -67 9 c-72 10 -83 20 -39 37 15 6 41 17 57 24 l30 14 -40 0 c-22
1 -49 4 -60 7 -14 3 -29 -4 -49 -24z"/>
</g>
</svg>
